<?xml version="1.0" encoding="UTF-8"?>
<!DOCTYPE svg PUBLIC "-//W3C//DTD SVG 1.1//EN" "http://www.w3.org/Graphics/SVG/1.1/DTD/svg11.dtd">
<!-- Creator: CorelDRAW 2019 (64-Bit) -->
<svg xmlns="http://www.w3.org/2000/svg" xml:space="preserve" width="39px" height="24px" version="1.1" style="shape-rendering:geometricPrecision; text-rendering:geometricPrecision; image-rendering:optimizeQuality; fill-rule:evenodd; clip-rule:evenodd"
viewBox="0 0 39 24"
 xmlns:xlink="http://www.w3.org/1999/xlink"
 xmlns:xodm="http://www.corel.com/coreldraw/odm/2003">
 <defs>
  <style type="text/css">
   <![CDATA[
    .str0 {stroke:#C8C8C8;stroke-width:0.3;stroke-miterlimit:22.9256}
    .fil0 {fill:#C5C6C6;fill-rule:nonzero}
   ]]>
  </style>
 </defs>
 <g id="Слой_x0020_1">
  <metadata id="CorelCorpID_0Corel-Layer"/>
  <g id="_1732462282432">
   <path class="fil0 str0" d="M0.72 22.29l1.27 1.28c0.4,0.4 0.94,0.62 1.5,0.62 0.57,0 1.09,-0.22 1.5,-0.62l14.47 -14.47 14.48 14.49c0.4,0.39 0.94,0.61 1.5,0.61 0.57,0 1.1,-0.22 1.5,-0.61l1.27 -1.28c0.82,-0.82 0.82,-2.16 0,-2.99l-17.25 -17.31c-0.4,-0.4 -0.93,-0.68 -1.5,-0.68l-0.01 0c-0.57,0 -1.1,0.28 -1.49,0.68l-17.24 17.26c-0.4,0.41 -0.62,0.95 -0.62,1.52 0,0.57 0.22,1.11 0.62,1.5l0 0z"/>
   <g id="_2532853771456">
   </g>
   <g id="_2532853770752">
   </g>
   <g id="_2532853756640">
   </g>
   <g id="_2532853755808">
   </g>
   <g id="_2532853753472">
   </g>
   <g id="_2532853754112">
   </g>
   <g id="_2532525443264">
   </g>
   <g id="_2532525490624">
   </g>
   <g id="_2532525482720">
   </g>
   <g id="_2532525482080">
   </g>
   <g id="_2532525478496">
   </g>
   <g id="_2532525477728">
   </g>
   <g id="_2532525470816">
   </g>
   <g id="_2532525447488">
   </g>
   <g id="_2532525444576">
   </g>
  </g>
 </g>
</svg>
